<?xml version="1.0" encoding="utf-8"?>
<!-- Generator: Adobe Illustrator 23.0.1, SVG Export Plug-In . SVG Version: 6.00 Build 0)  -->
<svg version="1.1" id="Layer_1" xmlns="http://www.w3.org/2000/svg" xmlns:xlink="http://www.w3.org/1999/xlink" x="0px" y="0px"
	 viewBox="0 0 300.3 330.8" style="enable-background:new 0 0 300.3 330.8;" xml:space="preserve">
<style type="text/css">
	.st0{fill:#002169;}
	.st1{fill:#CE0E2D;}
	.st2{fill-rule:evenodd;clip-rule:evenodd;fill:#FFFFFF;}
	.st3{fill-rule:evenodd;clip-rule:evenodd;fill:#002169;}
</style>
<g>
	<path class="st0" d="M0.1,218h14.4v41.6c0,4.7,0.5,8.1,1.6,10.2c1.7,3.8,5.4,5.7,11.2,5.7c5.7,0,9.4-1.9,11.1-5.7
		c1.1-2.1,1.6-5.5,1.6-10.2V218h14.4v41.6c0,7.2-1.1,12.8-3.3,16.8c-4.2,7.4-12.1,11-23.8,11c-11.7,0-19.7-3.7-23.9-11
		c-2.2-4-3.3-9.6-3.3-16.8V218z"/>
	<path class="st0" d="M68.3,218h13.9v27.9l26.2-27.9h18.3l-27.8,27.9l29.2,39.9H110l-20.9-29.6l-6.8,6.9v22.7H68.3V218z"/>
	<path class="st1" d="M166.8,245.6c3.2-0.4,5.5-0.9,6.9-1.5c2.5-1,3.7-2.7,3.7-4.9c0-2.7-1-4.6-2.9-5.6c-1.9-1-4.7-1.5-8.4-1.5
		c-4.1,0-7.1,1-8.8,3c-1.2,1.5-2,3.5-2.5,6h-16.6c0.4-5.8,2-10.5,4.9-14.2c4.6-5.8,12.4-8.7,23.6-8.7c7.2,0,13.7,1.4,19.3,4.3
		c5.6,2.9,8.4,8.3,8.4,16.2V269c0,2.1,0,4.6,0.1,7.6c0.1,2.3,0.5,3.8,1,4.6c0.6,0.8,1.4,1.5,2.5,2v2.5h-18.7
		c-0.5-1.3-0.9-2.6-1.1-3.7c-0.2-1.2-0.4-2.5-0.5-4c-2.4,2.6-5.2,4.8-8.3,6.6c-3.7,2.1-7.9,3.2-12.7,3.2c-6,0-11-1.7-14.9-5.1
		c-3.9-3.4-5.9-8.2-5.9-14.5c0-8.1,3.1-14,9.4-17.6c3.5-2,8.5-3.4,15.2-4.2L166.8,245.6z M177.3,253.7c-1.1,0.7-2.2,1.2-3.3,1.7
		c-1.1,0.4-2.7,0.8-4.6,1.2l-3.9,0.7c-3.7,0.6-6.3,1.4-7.9,2.4c-2.7,1.6-4.1,4-4.1,7.3c0,2.9,0.8,5.1,2.5,6.4c1.7,1.3,3.7,2,6,2
		c3.8,0,7.2-1.1,10.4-3.3c3.2-2.2,4.8-6.1,4.9-11.9V253.7z"/>
	<rect x="208.2" y="196.7" class="st1" width="17.5" height="17.5"/>
	<rect x="208.2" y="219.8" class="st1" width="17.5" height="65.9"/>
	<path class="st1" d="M275.2,220.8c3.1,1.8,5.6,4.2,7.6,7.3v-31.4h17.5v89h-16.8v-9.1c-2.5,3.9-5.3,6.8-8.4,8.5
		c-3.1,1.8-7.1,2.7-11.7,2.7c-7.7,0-14.2-3.1-19.4-9.3c-5.3-6.2-7.9-14.2-7.9-24c0-11.3,2.6-20.1,7.8-26.6
		c5.2-6.4,12.1-9.7,20.8-9.7C268.6,218.2,272.1,219.1,275.2,220.8z M279.4,267.8c2.5-3.6,3.8-8.3,3.8-14.1c0-8.1-2-13.8-6.1-17.3
		c-2.5-2.1-5.4-3.1-8.7-3.1c-5,0-8.7,1.9-11.1,5.7c-2.4,3.8-3.5,8.5-3.5,14.2c0,6.1,1.2,11,3.6,14.6c2.4,3.6,6,5.5,10.9,5.5
		C273.2,273.3,276.9,271.4,279.4,267.8z"/>
	<rect x="0.1" class="st2" width="300.2" height="179.2"/>
	<g>
		<g>
			<g>
				<polygon class="st3" points="300.3,59.7 300.3,20.9 235.3,59.7 				"/>
				<polygon class="st3" points="120.2,0 35.2,0 120.2,50.8 				"/>
				<polygon class="st3" points="0.1,119.5 0.1,158.3 65.2,119.5 				"/>
				<polygon class="st3" points="180.2,0 180.2,50.8 265.3,0 				"/>
				<polygon class="st3" points="0.1,20.9 0.1,59.7 65.2,59.7 				"/>
				<polygon class="st3" points="300.3,158.3 300.3,119.5 235.3,119.5 				"/>
				<polygon class="st3" points="35.1,179.2 120.2,179.2 120.2,128.4 				"/>
				<polygon class="st3" points="180.2,179.2 265.3,179.2 180.2,128.4 				"/>
			</g>
			<path class="st1" d="M76.8,59.7L0.1,13.9V0l100.1,59.7H76.8z M223.6,119.5l76.7,45.8v13.9l-100.1-59.7H223.6z M180.2,57.8L277,0
				h23.3L200.3,59.7h-20V57.8z M0.1,179.2l100.1-59.7h20v2l-96.7,57.8H0.1z"/>
			<polygon class="st1" points="132.2,179.2 132.2,107.5 0.1,107.5 0.1,71.7 132.2,71.7 132.2,0 168.2,0 168.2,71.7 300.3,71.7 
				300.3,107.5 168.2,107.5 168.2,179.2 			"/>
		</g>
	</g>
	<g>
		<path class="st0" d="M0,311.5v-2.3h2.6v-2.3c0-1.3,0.4-2.2,1.1-2.9c0.7-0.7,1.8-1,3.2-1c0.2,0,0.5,0,0.8,0.1
			c0.3,0,0.6,0.1,0.8,0.2v2.2c-0.2-0.1-0.5-0.1-0.7-0.2c-0.3,0-0.5,0-0.7,0c-0.6,0-1.1,0.1-1.4,0.4c-0.3,0.2-0.5,0.7-0.5,1.4v2.2h3
			v2.3h-3v13.3H2.6v-13.3H0z"/>
		<path class="st0" d="M12.4,309.3v3.3h0.1c0.6-1.3,1.4-2.2,2.3-2.8c0.9-0.6,2.1-0.9,3.4-0.8v2.7c-1,0-1.9,0.1-2.6,0.4
			c-0.7,0.3-1.3,0.7-1.8,1.2c-0.4,0.5-0.8,1.2-1,2c-0.2,0.8-0.3,1.7-0.3,2.7v6.9H10v-15.6H12.4z"/>
		<path class="st0" d="M19.3,313.9c0.3-1,0.8-1.9,1.4-2.6c0.6-0.7,1.4-1.3,2.4-1.7c0.9-0.4,2-0.6,3.3-0.6c1.2,0,2.3,0.2,3.3,0.6
			c0.9,0.4,1.7,1,2.4,1.7c0.6,0.7,1.1,1.6,1.4,2.6c0.3,1,0.5,2.1,0.5,3.2c0,1.1-0.2,2.2-0.5,3.2c-0.3,1-0.8,1.8-1.4,2.6
			c-0.6,0.7-1.4,1.3-2.4,1.7c-0.9,0.4-2,0.6-3.3,0.6c-1.2,0-2.3-0.2-3.3-0.6c-0.9-0.4-1.7-1-2.4-1.7c-0.6-0.7-1.1-1.6-1.4-2.6
			c-0.3-1-0.5-2.1-0.5-3.2C18.8,315.9,18.9,314.9,19.3,313.9z M21.9,319.6c0.3,0.7,0.6,1.3,1,1.8c0.4,0.5,1,0.9,1.6,1.1
			c0.6,0.3,1.2,0.4,1.9,0.4c0.7,0,1.3-0.1,1.9-0.4c0.6-0.3,1.1-0.6,1.6-1.1c0.4-0.5,0.8-1.1,1-1.8c0.3-0.7,0.4-1.6,0.4-2.5
			c0-0.9-0.1-1.8-0.4-2.5c-0.3-0.7-0.6-1.4-1-1.9c-0.4-0.5-1-0.9-1.6-1.1c-0.6-0.3-1.2-0.4-1.9-0.4c-0.7,0-1.3,0.1-1.9,0.4
			c-0.6,0.3-1.1,0.6-1.6,1.1c-0.4,0.5-0.8,1.1-1,1.9c-0.3,0.7-0.4,1.6-0.4,2.5C21.5,318,21.6,318.9,21.9,319.6z"/>
		<path class="st0" d="M39,309.3v2.3H39c1.2-1.8,2.8-2.7,5-2.7c1,0,1.8,0.2,2.6,0.6c0.8,0.4,1.3,1.1,1.7,2.1c0.5-0.8,1.2-1.5,2.1-2
			c0.9-0.5,1.8-0.7,2.8-0.7c0.8,0,1.5,0.1,2.1,0.3c0.6,0.2,1.2,0.4,1.6,0.8c0.5,0.4,0.8,0.8,1.1,1.4c0.3,0.6,0.4,1.3,0.4,2.1v11.4
			h-2.6v-10.2c0-0.5,0-0.9-0.1-1.4c-0.1-0.4-0.2-0.8-0.5-1.1c-0.2-0.3-0.5-0.6-0.9-0.7c-0.4-0.2-0.9-0.3-1.5-0.3
			c-1.3,0-2.3,0.4-3,1.1c-0.7,0.7-1.1,1.7-1.1,2.9v9.7h-2.6v-10.2c0-0.5,0-1-0.1-1.4c-0.1-0.4-0.2-0.8-0.5-1.1
			c-0.2-0.3-0.5-0.6-0.9-0.7c-0.4-0.2-0.9-0.3-1.4-0.3c-0.7,0-1.4,0.2-1.9,0.5c-0.5,0.3-1,0.7-1.3,1.1c-0.3,0.4-0.6,0.9-0.7,1.3
			c-0.2,0.5-0.2,0.8-0.2,1.1v9.7h-2.6v-15.6H39z"/>
		<path class="st0" d="M77.4,309.3v2.3h-3.1v9.7c0,0.3,0,0.5,0.1,0.7c0,0.2,0.1,0.3,0.3,0.4c0.1,0.1,0.3,0.2,0.6,0.2
			c0.3,0,0.6,0,1,0h1.2v2.3h-2c-0.7,0-1.2,0-1.7-0.1c-0.5-0.1-0.9-0.3-1.1-0.5c-0.3-0.2-0.5-0.6-0.6-1c-0.1-0.4-0.2-1-0.2-1.8v-9.9
			H69v-2.3h2.7v-4.7h2.6v4.7H77.4z"/>
		<path class="st0" d="M82.1,303.3v8.2h0.1c0.2-0.5,0.5-0.9,0.8-1.2c0.4-0.3,0.8-0.6,1.2-0.8c0.5-0.2,0.9-0.4,1.4-0.5
			c0.5-0.1,1-0.2,1.4-0.2c1,0,1.9,0.1,2.6,0.4c0.7,0.3,1.2,0.7,1.7,1.2c0.4,0.5,0.7,1.1,0.9,1.8c0.2,0.7,0.3,1.5,0.3,2.3v10.3h-2.6
			v-10.6c0-1-0.3-1.7-0.8-2.3c-0.6-0.6-1.3-0.8-2.3-0.8c-0.8,0-1.5,0.1-2,0.4c-0.6,0.2-1.1,0.6-1.4,1c-0.4,0.4-0.7,1-0.9,1.6
			c-0.2,0.6-0.3,1.2-0.3,1.9v8.8h-2.6v-21.6H82.1z"/>
		<path class="st0" d="M106.9,323.9c-1.2,0.9-2.6,1.3-4.4,1.3c-1.2,0-2.3-0.2-3.2-0.6c-0.9-0.4-1.7-1-2.3-1.7
			c-0.6-0.7-1.1-1.6-1.4-2.6c-0.3-1-0.5-2.1-0.5-3.3c0-1.2,0.2-2.3,0.5-3.3c0.4-1,0.9-1.8,1.5-2.6c0.7-0.7,1.4-1.3,2.3-1.7
			c0.9-0.4,1.9-0.6,2.9-0.6c1.4,0,2.5,0.3,3.5,0.9c0.9,0.6,1.6,1.3,2.2,2.2c0.6,0.9,0.9,1.9,1.1,2.9c0.2,1,0.3,2,0.3,3H97.7
			c0,0.7,0.1,1.3,0.2,1.9c0.2,0.6,0.5,1.2,0.9,1.6c0.4,0.5,0.9,0.9,1.5,1.1c0.6,0.3,1.4,0.4,2.2,0.4c1.1,0,2-0.3,2.7-0.8
			c0.7-0.5,1.2-1.3,1.4-2.3h2.5C108.8,321.7,108.1,323,106.9,323.9z M106.3,313.9c-0.2-0.5-0.5-1-0.9-1.4c-0.4-0.4-0.9-0.7-1.4-0.9
			c-0.5-0.2-1.1-0.3-1.8-0.3c-0.7,0-1.3,0.1-1.8,0.3c-0.5,0.2-1,0.5-1.4,1c-0.4,0.4-0.7,0.9-0.9,1.4c-0.2,0.5-0.4,1.1-0.4,1.7h9
			C106.7,315,106.5,314.4,106.3,313.9z"/>
		<path class="st0" d="M128.7,303.3c0.5,0,1,0,1.5,0c0.5,0,1.1,0,1.6,0.1c0.5,0.1,1,0.1,1.5,0.2c0.5,0.1,0.8,0.3,1.2,0.5
			c0.7,0.4,1.3,1,1.8,1.8c0.5,0.7,0.7,1.7,0.7,2.7c0,1.1-0.3,2.1-0.8,3c-0.6,0.8-1.3,1.5-2.4,1.9v0.1c1.3,0.3,2.3,0.9,3,1.8
			c0.7,0.9,1.1,2.1,1.1,3.4c0,0.8-0.1,1.6-0.4,2.3c-0.3,0.7-0.7,1.4-1.3,2c-0.6,0.6-1.2,1-2.1,1.4c-0.8,0.4-1.8,0.5-2.8,0.5h-10.4
			v-21.6H128.7z M129.5,312.6c1.6,0,2.8-0.3,3.5-0.9c0.7-0.6,1.1-1.4,1.1-2.6c0-0.8-0.1-1.4-0.4-1.8c-0.2-0.4-0.6-0.8-1-1
			c-0.4-0.2-0.9-0.4-1.5-0.5c-0.6-0.1-1.1-0.1-1.8-0.1h-5.7v6.9H129.5z M130.9,322.5c1.3,0,2.3-0.3,3-1c0.7-0.7,1.1-1.6,1.1-2.8
			c0-0.7-0.1-1.3-0.4-1.8c-0.3-0.5-0.6-0.8-1-1.1c-0.4-0.3-0.9-0.5-1.5-0.6c-0.6-0.1-1.1-0.2-1.8-0.2h-6.5v7.5H130.9z"/>
		<path class="st0" d="M143.1,309.3v3.3h0.1c0.6-1.3,1.4-2.2,2.3-2.8c0.9-0.6,2.1-0.9,3.4-0.8v2.7c-1,0-1.9,0.1-2.6,0.4
			c-0.7,0.3-1.3,0.7-1.8,1.2c-0.4,0.5-0.8,1.2-1,2c-0.2,0.8-0.3,1.7-0.3,2.7v6.9h-2.6v-15.6H143.1z"/>
		<path class="st0" d="M150.6,306.5v-3.1h2.6v3.1H150.6z M153.2,309.3v15.6h-2.6v-15.6H153.2z"/>
		<path class="st0" d="M163.4,309.3v2.3h-3.1v9.7c0,0.3,0,0.5,0.1,0.7c0.1,0.2,0.1,0.3,0.3,0.4c0.1,0.1,0.3,0.2,0.6,0.2
			c0.3,0,0.6,0,1,0h1.2v2.3h-2c-0.7,0-1.2,0-1.7-0.1c-0.5-0.1-0.9-0.3-1.1-0.5c-0.3-0.2-0.5-0.6-0.6-1c-0.1-0.4-0.2-1-0.2-1.8v-9.9
			H155v-2.3h2.7v-4.7h2.6v4.7H163.4z"/>
		<path class="st0" d="M165.7,306.5v-3.1h2.6v3.1H165.7z M168.3,309.3v15.6h-2.6v-15.6H168.3z"/>
		<path class="st0" d="M173.9,321.4c0.2,0.4,0.6,0.7,1,0.9c0.4,0.2,0.8,0.4,1.3,0.5c0.5,0.1,1,0.2,1.5,0.2c0.4,0,0.8,0,1.3-0.1
			c0.4-0.1,0.9-0.2,1.2-0.3c0.4-0.2,0.7-0.4,0.9-0.7c0.2-0.3,0.4-0.7,0.4-1.2c0-0.7-0.3-1.2-0.8-1.5c-0.5-0.3-1.1-0.6-1.9-0.8
			c-0.8-0.2-1.6-0.4-2.5-0.6c-0.9-0.2-1.7-0.4-2.5-0.7c-0.8-0.3-1.4-0.7-1.9-1.3c-0.5-0.6-0.8-1.3-0.8-2.4c0-0.8,0.2-1.5,0.5-2
			c0.4-0.6,0.8-1,1.4-1.4c0.6-0.4,1.2-0.6,1.9-0.8c0.7-0.2,1.4-0.3,2.1-0.3c0.9,0,1.7,0.1,2.4,0.2c0.7,0.2,1.4,0.4,2,0.8
			c0.6,0.4,1,0.9,1.4,1.5c0.3,0.6,0.5,1.4,0.6,2.4h-2.6c0-0.5-0.2-0.9-0.4-1.3c-0.2-0.3-0.5-0.6-0.8-0.8c-0.3-0.2-0.7-0.3-1.1-0.4
			c-0.4-0.1-0.8-0.1-1.3-0.1c-0.4,0-0.8,0-1.2,0.1c-0.4,0.1-0.7,0.2-1.1,0.3c-0.3,0.2-0.6,0.4-0.8,0.6c-0.2,0.3-0.3,0.6-0.3,1
			c0,0.4,0.2,0.8,0.5,1.1c0.3,0.3,0.7,0.5,1.2,0.7c0.5,0.2,1,0.4,1.6,0.5c0.6,0.1,1.2,0.3,1.8,0.4c0.6,0.1,1.3,0.3,1.9,0.5
			c0.6,0.2,1.2,0.5,1.6,0.8c0.5,0.3,0.9,0.7,1.1,1.3c0.3,0.5,0.4,1.1,0.4,1.9c0,0.9-0.2,1.7-0.6,2.4c-0.4,0.6-0.9,1.1-1.5,1.5
			c-0.6,0.4-1.3,0.6-2.1,0.8c-0.8,0.2-1.6,0.2-2.4,0.2c-0.9,0-1.7-0.1-2.5-0.3c-0.8-0.2-1.5-0.5-2.1-0.9c-0.6-0.4-1.1-1-1.4-1.6
			c-0.4-0.7-0.6-1.5-0.6-2.5h2.6C173.5,320.5,173.6,321,173.9,321.4z"/>
		<path class="st0" d="M189.2,303.3v8.2h0.1c0.2-0.5,0.5-0.9,0.8-1.2c0.4-0.3,0.8-0.6,1.2-0.8c0.5-0.2,0.9-0.4,1.4-0.5
			c0.5-0.1,1-0.2,1.4-0.2c1,0,1.9,0.1,2.6,0.4c0.7,0.3,1.2,0.7,1.7,1.2c0.4,0.5,0.7,1.1,0.9,1.8c0.2,0.7,0.3,1.5,0.3,2.3v10.3H197
			v-10.6c0-1-0.3-1.7-0.8-2.3c-0.6-0.6-1.3-0.8-2.3-0.8c-0.8,0-1.5,0.1-2,0.4c-0.6,0.2-1.1,0.6-1.4,1c-0.4,0.4-0.7,1-0.9,1.6
			c-0.2,0.6-0.3,1.2-0.3,1.9v8.8h-2.6v-21.6H189.2z"/>
		<path class="st0" d="M214.4,309.3v2.1h0.1c0.4-0.9,1.1-1.5,2-1.9c0.9-0.4,1.9-0.6,3-0.6c1.2,0,2.3,0.2,3.2,0.7
			c0.9,0.4,1.6,1,2.2,1.8c0.6,0.8,1,1.6,1.3,2.6c0.3,1,0.5,2,0.5,3.1c0,1.1-0.1,2.2-0.4,3.1c-0.3,1-0.7,1.8-1.3,2.6
			c-0.6,0.7-1.3,1.3-2.2,1.7c-0.9,0.4-1.9,0.6-3.1,0.6c-0.4,0-0.8,0-1.3-0.1c-0.5-0.1-0.9-0.2-1.4-0.4s-0.9-0.4-1.3-0.7
			c-0.4-0.3-0.8-0.7-1-1.2h-0.1v8h-2.6v-21.5H214.4z M223.7,314.8c-0.2-0.7-0.5-1.3-0.9-1.9c-0.4-0.5-0.9-1-1.5-1.3
			c-0.6-0.3-1.3-0.5-2.2-0.5c-0.9,0-1.6,0.2-2.2,0.5c-0.6,0.3-1.1,0.8-1.5,1.3c-0.4,0.6-0.7,1.2-0.8,1.9c-0.2,0.7-0.3,1.4-0.3,2.1
			c0,0.8,0.1,1.5,0.3,2.2c0.2,0.7,0.5,1.3,0.9,1.9c0.4,0.5,0.9,1,1.5,1.3c0.6,0.3,1.4,0.5,2.3,0.5c0.9,0,1.6-0.2,2.2-0.5
			c0.6-0.3,1.1-0.8,1.4-1.4c0.4-0.6,0.6-1.2,0.8-1.9c0.2-0.7,0.2-1.5,0.2-2.2C224,316.2,223.9,315.5,223.7,314.8z"/>
		<path class="st0" d="M240.3,323.9c-1.2,0.9-2.6,1.3-4.4,1.3c-1.2,0-2.3-0.2-3.2-0.6c-0.9-0.4-1.7-1-2.3-1.7
			c-0.6-0.7-1.1-1.6-1.4-2.6c-0.3-1-0.5-2.1-0.5-3.3c0-1.2,0.2-2.3,0.5-3.3c0.4-1,0.9-1.8,1.5-2.6c0.7-0.7,1.4-1.3,2.3-1.7
			c0.9-0.4,1.9-0.6,2.9-0.6c1.4,0,2.5,0.3,3.5,0.9c0.9,0.6,1.6,1.3,2.2,2.2c0.6,0.9,0.9,1.9,1.1,2.9c0.2,1,0.3,2,0.3,3h-11.7
			c0,0.7,0.1,1.3,0.2,1.9c0.2,0.6,0.5,1.2,0.9,1.6c0.4,0.5,0.9,0.9,1.5,1.1c0.6,0.3,1.4,0.4,2.2,0.4c1.1,0,2-0.3,2.7-0.8
			c0.7-0.5,1.2-1.3,1.4-2.3h2.5C242.3,321.7,241.5,323,240.3,323.9z M239.7,313.9c-0.2-0.5-0.5-1-0.9-1.4c-0.4-0.4-0.9-0.7-1.4-0.9
			c-0.5-0.2-1.1-0.3-1.8-0.3c-0.7,0-1.3,0.1-1.8,0.3c-0.5,0.2-1,0.5-1.4,1c-0.4,0.4-0.7,0.9-0.9,1.4c-0.2,0.5-0.4,1.1-0.4,1.7h9
			C240.1,315,240,314.4,239.7,313.9z"/>
		<path class="st0" d="M244.9,313.9c0.3-1,0.8-1.9,1.4-2.6c0.6-0.7,1.4-1.3,2.4-1.7c0.9-0.4,2-0.6,3.3-0.6c1.2,0,2.3,0.2,3.3,0.6
			c0.9,0.4,1.7,1,2.4,1.7c0.6,0.7,1.1,1.6,1.4,2.6c0.3,1,0.5,2.1,0.5,3.2c0,1.1-0.2,2.2-0.5,3.2c-0.3,1-0.8,1.8-1.4,2.6
			c-0.6,0.7-1.4,1.3-2.4,1.7c-0.9,0.4-2,0.6-3.3,0.6c-1.2,0-2.3-0.2-3.3-0.6c-0.9-0.4-1.7-1-2.4-1.7c-0.6-0.7-1.1-1.6-1.4-2.6
			c-0.3-1-0.5-2.1-0.5-3.2C244.5,315.9,244.6,314.9,244.9,313.9z M247.6,319.6c0.3,0.7,0.6,1.3,1,1.8c0.4,0.5,1,0.9,1.6,1.1
			c0.6,0.3,1.2,0.4,1.9,0.4s1.3-0.1,1.9-0.4c0.6-0.3,1.1-0.6,1.6-1.1c0.4-0.5,0.8-1.1,1-1.8c0.3-0.7,0.4-1.6,0.4-2.5
			c0-0.9-0.1-1.8-0.4-2.5c-0.3-0.7-0.6-1.4-1-1.9c-0.4-0.5-1-0.9-1.6-1.1c-0.6-0.3-1.2-0.4-1.9-0.4s-1.3,0.1-1.9,0.4
			c-0.6,0.3-1.1,0.6-1.6,1.1c-0.4,0.5-0.8,1.1-1,1.9c-0.3,0.7-0.4,1.6-0.4,2.5C247.2,318,247.3,318.9,247.6,319.6z"/>
		<path class="st0" d="M264.8,309.3v2.1h0.1c0.4-0.9,1.1-1.5,2-1.9c0.9-0.4,1.9-0.6,3-0.6c1.2,0,2.3,0.2,3.2,0.7
			c0.9,0.4,1.6,1,2.2,1.8c0.6,0.8,1,1.6,1.3,2.6c0.3,1,0.5,2,0.5,3.1c0,1.1-0.1,2.2-0.4,3.1c-0.3,1-0.7,1.8-1.3,2.6
			c-0.6,0.7-1.3,1.3-2.2,1.7c-0.9,0.4-1.9,0.6-3.1,0.6c-0.4,0-0.8,0-1.3-0.1c-0.5-0.1-0.9-0.2-1.4-0.4c-0.5-0.2-0.9-0.4-1.3-0.7
			c-0.4-0.3-0.8-0.7-1-1.2h-0.1v8h-2.6v-21.5H264.8z M274.1,314.8c-0.2-0.7-0.5-1.3-0.9-1.9c-0.4-0.5-0.9-1-1.5-1.3
			c-0.6-0.3-1.3-0.5-2.2-0.5c-0.9,0-1.6,0.2-2.2,0.5c-0.6,0.3-1.1,0.8-1.5,1.3c-0.4,0.6-0.7,1.2-0.8,1.9c-0.2,0.7-0.3,1.4-0.3,2.1
			c0,0.8,0.1,1.5,0.3,2.2c0.2,0.7,0.5,1.3,0.9,1.9c0.4,0.5,0.9,1,1.5,1.3c0.6,0.3,1.4,0.5,2.3,0.5c0.9,0,1.6-0.2,2.2-0.5
			c0.6-0.3,1.1-0.8,1.4-1.4c0.4-0.6,0.6-1.2,0.8-1.9c0.2-0.7,0.2-1.5,0.2-2.2C274.3,316.2,274.2,315.5,274.1,314.8z"/>
		<path class="st0" d="M282.3,303.3v21.6h-2.6v-21.6H282.3z"/>
		<path class="st0" d="M296.9,323.9c-1.2,0.9-2.6,1.3-4.4,1.3c-1.2,0-2.3-0.2-3.2-0.6c-0.9-0.4-1.7-1-2.3-1.7
			c-0.6-0.7-1.1-1.6-1.4-2.6c-0.3-1-0.5-2.1-0.5-3.3c0-1.2,0.2-2.3,0.5-3.3c0.4-1,0.9-1.8,1.5-2.6c0.7-0.7,1.4-1.3,2.3-1.7
			c0.9-0.4,1.9-0.6,2.9-0.6c1.4,0,2.5,0.3,3.5,0.9c0.9,0.6,1.6,1.3,2.2,2.2c0.6,0.9,0.9,1.9,1.1,2.9c0.2,1,0.3,2,0.3,3h-11.7
			c0,0.7,0.1,1.3,0.2,1.9c0.2,0.6,0.5,1.2,0.9,1.6c0.4,0.5,0.9,0.9,1.5,1.1c0.6,0.3,1.4,0.4,2.2,0.4c1.1,0,2-0.3,2.7-0.8
			c0.7-0.5,1.2-1.3,1.4-2.3h2.5C298.8,321.7,298.1,323,296.9,323.9z M296.3,313.9c-0.2-0.5-0.5-1-0.9-1.4c-0.4-0.4-0.9-0.7-1.4-0.9
			c-0.5-0.2-1.1-0.3-1.8-0.3c-0.7,0-1.3,0.1-1.8,0.3c-0.5,0.2-1,0.5-1.4,1c-0.4,0.4-0.7,0.9-0.9,1.4c-0.2,0.5-0.4,1.1-0.4,1.7h9
			C296.7,315,296.5,314.4,296.3,313.9z"/>
	</g>
</g>
</svg>
