<svg xmlns="http://www.w3.org/2000/svg" viewBox="0 0 528.76 137.94"><defs><style>.cls-1{fill:#353535;}</style></defs><title>logo-horizontal</title><g id="Layer_2" data-name="Layer 2"><g id="Layer_1-2" data-name="Layer 1"><path class="cls-1" d="M131.55,30.57c-4.68-4.78-23-19-32.46-23.65A66.93,66.93,0,0,0,69.8,0,66.92,66.92,0,0,0,40.52,6.92C31.11,11.53,12.75,25.79,8.06,30.57A29.13,29.13,0,0,0,0,50.85V87.09a29.13,29.13,0,0,0,8.06,20.28c4.68,4.78,23,19,32.46,23.65a67,67,0,0,0,29.28,6.92A66.93,66.93,0,0,0,99.09,131c9.42-4.61,27.78-18.87,32.46-23.65a29.16,29.16,0,0,0,8.06-20.28V50.85A29.14,29.14,0,0,0,131.55,30.57ZM15.91,38.26C20.08,34,37.3,20.73,45.35,16.78A56,56,0,0,1,69.8,11a56,56,0,0,1,24.46,5.8c8,3.95,25.27,17.22,29.44,21.48a18.05,18.05,0,0,1,4.93,12.59v6.32a18,18,0,0,1-6.83,14.1C102.18,86.82,88.06,97.32,83.3,99.84A28.88,28.88,0,0,1,69.82,103h0a31.09,31.09,0,0,1-13.64-3.23c-4.55-2.24-19.37-13.65-21.23-15.42A.48.48,0,0,1,34.8,84a.46.46,0,0,1,.2-.37l10.23-7.74,11.62,8.79a21.53,21.53,0,0,0,25.9,0L103.49,69h0L111,63.3a11.92,11.92,0,0,0,4.1-5.34,11.51,11.51,0,0,0-2.75-12.23c-2-1.91-18-14.43-24-17.41A42.15,42.15,0,0,0,69.8,24a40,40,0,0,0-18.64,4.42C44.29,32,25.62,46.46,11,58.06V50.85A18,18,0,0,1,15.91,38.26ZM54.34,69l9.14-6.92a10.54,10.54,0,0,1,12.65,0L85.27,69l-9.14,6.91a10.49,10.49,0,0,1-12.65,0ZM123.7,99.68c-4.17,4.26-21.39,17.53-29.44,21.48A56,56,0,0,1,69.8,127a56,56,0,0,1-24.45-5.8c-8.05-4-25.27-17.22-29.44-21.48A18,18,0,0,1,11,87.09V80.77a18,18,0,0,1,6.83-14.1c19.61-15.55,33.73-26,38.5-28.57,7.54-4,18.28-4.28,27.14.08C88,40.42,102.82,51.83,104.68,53.6a.47.47,0,0,1,.13.38.44.44,0,0,1-.19.36L94.38,62.08,82.75,53.29a21.48,21.48,0,0,0-25.9,0L36.12,69h0l-7.49,5.66A11.94,11.94,0,0,0,24.53,80a11.5,11.5,0,0,0,2.74,12.24c2,1.91,18,14.43,24,17.41A42.1,42.1,0,0,0,69.79,114h0a40,40,0,0,0,18.63-4.42c6.86-3.64,25.54-18.07,40.18-29.67v7.21A18.05,18.05,0,0,1,123.7,99.68Z"/><path class="cls-1" d="M211,42.67c-17.34,0-26.11,12-26.11,26.3s8.77,26.3,26.11,26.3,26.11-12,26.11-26.3S228.29,42.67,211,42.67Zm0,42.39c-10,0-15-7.89-15-16.09s5-16.1,15-16.1,15,7.9,15,16.1S220.92,85.06,211,85.06Z"/><path class="cls-1" d="M447.12,42.67c-17.34,0-26.11,12-26.11,26.3s8.77,26.3,26.11,26.3,26.1-12,26.1-26.3S464.45,42.67,447.12,42.67Zm0,42.39c-10,0-15-7.89-15-16.09s5-16.1,15-16.1,15,7.9,15,16.1S457.09,85.06,447.12,85.06Z"/><path class="cls-1" d="M275.68,85.06A16.35,16.35,0,0,1,259,69c0-8.2,5-16.1,15-16.1a16.21,16.21,0,0,1,14,7.3l1.06-.79V46.78a33.51,33.51,0,0,0-15-4.11c-17.34,0-26.11,12-26.11,26.3s10.44,26.3,27.78,26.3a32.41,32.41,0,0,0,15.23-4v-13l-1-.77A17.68,17.68,0,0,1,275.68,85.06Z"/><path class="cls-1" d="M388.51,42.68c-8,0-14,.5-19.79.5H367s.17,6.36.17,25.79S367,94.76,367,94.76h11.09s-.08-3.06-.13-11.42a69.83,69.83,0,0,0,8,.42c15,0,24.25-7,24.25-20.84C410.29,51.61,402.65,42.68,388.51,42.68Zm-2.09,31.2a82,82,0,0,1-8.45-.47V69c0-6.75,0-11.92,0-15.79a30.39,30.39,0,0,1,7.18-.79c11.33,0,14.34,4.1,14.34,10.75C399.53,68.7,396,73.88,386.42,73.88Z"/><path class="cls-1" d="M507,42.68c-8,0-14,.5-19.79.5h-1.68s.17,6.36.17,25.79-.17,25.79-.17,25.79H496.6s-.08-3.06-.13-11.42a69.83,69.83,0,0,0,8,.42c15,0,24.25-7,24.25-20.84C528.76,51.61,521.12,42.68,507,42.68Zm-2.09,31.2a82,82,0,0,1-8.45-.47V69c0-6.75,0-11.92,0-15.79a30.39,30.39,0,0,1,7.18-.79C515,52.39,518,56.49,518,63.14,518,68.7,514.42,73.88,504.89,73.88Z"/><path class="cls-1" d="M351.37,43.18H340.28s.17,6.36.17,25.79c0,10.36-3.85,16.09-12.43,16.09S315.6,79.33,315.6,69c0-19.43.17-25.79.17-25.79H304.68s.08,6.36.08,25.79h0c0,14.25,5.93,26.3,23.26,26.3s23.27-12,23.27-26.3h0C351.29,49.54,351.37,43.18,351.37,43.18Z"/></g></g></svg>