<svg xmlns="http://www.w3.org/2000/svg" viewBox="0 0 343.91 396.94"><defs><style>.cls-1{fill:#353535;}</style></defs><title>logo-vertical</title><g id="Layer_2" data-name="Layer 2"><g id="Layer_1-2" data-name="Layer 1"><path class="cls-1" d="M298,61.15c-9.36-9.56-46.08-38.09-64.9-47.31a130.89,130.89,0,0,0-117.16,0C97.09,23.05,60.36,51.58,51,61.15a58.19,58.19,0,0,0-16.12,40.54v72.49A58.24,58.24,0,0,0,51,214.74c9.36,9.55,46.09,38.07,64.91,47.3a130.87,130.87,0,0,0,117.15,0c18.84-9.23,55.56-37.75,64.91-47.31a58.21,58.21,0,0,0,16.13-40.55V101.69A58.2,58.2,0,0,0,298,61.15ZM66.69,76.52C75,68,109.47,41.45,125.58,33.57a108.89,108.89,0,0,1,97.81,0c16.1,7.88,50.53,34.43,58.88,42.95a36.09,36.09,0,0,1,9.85,25.17v12.64a36,36,0,0,1-13.65,28.2c-39.24,31.12-67.47,52.1-77,57.15a57.81,57.81,0,0,1-27,6.29h0a62.13,62.13,0,0,1-27.27-6.45c-9.11-4.47-38.74-27.29-42.46-30.84a1,1,0,0,1-.27-.76.92.92,0,0,1,.4-.73l20.47-15.48,23.24,17.58a43.12,43.12,0,0,0,51.81,0l41.46-31.35h0l15-11.35A23.79,23.79,0,0,0,265,115.92a23,23,0,0,0-5.49-24.46c-3.92-3.82-36-28.85-48.09-34.82a84.26,84.26,0,0,0-37-8.71,79.87,79.87,0,0,0-37.28,8.86c-13.75,7.28-51.1,36.13-80.36,59.34V101.69A36.07,36.07,0,0,1,66.69,76.52Zm76.85,61.42,18.29-13.83a21,21,0,0,1,25.3,0l18.29,13.83-18.3,13.82a21,21,0,0,1-25.29,0Zm138.73,61.42c-8.34,8.52-42.77,35.06-58.88,42.95a108.91,108.91,0,0,1-97.82,0c-16.1-7.89-50.54-34.43-58.88-42.95a36.1,36.1,0,0,1-9.85-25.18V161.54a36,36,0,0,1,13.64-28.19c39.23-31.11,67.46-52.1,77-57.15,15.08-8,36.56-8.56,54.29.15,9.12,4.49,38.74,27.31,42.46,30.86a1,1,0,0,1-.13,1.48l-20.47,15.48-23.25-17.59a43,43,0,0,0-51.81,0l-41.45,31.35h0l-15,11.32A23.84,23.84,0,0,0,83.93,160a23,23,0,0,0,5.48,24.47c3.92,3.82,36,28.86,48.08,34.82a84.33,84.33,0,0,0,37,8.7h.06a79.83,79.83,0,0,0,37.25-8.85c13.73-7.27,51.08-36.12,80.36-59.34v14.43A36.1,36.1,0,0,1,282.27,199.36Z"/><path class="cls-1" d="M26.11,344.35C8.77,344.35,0,356.4,0,370.64s8.77,26.3,26.11,26.3,26.1-12.05,26.1-26.3S43.44,344.35,26.11,344.35Zm0,42.39c-10,0-15-7.9-15-16.1s5-16.09,15-16.09,15,7.9,15,16.09S36.08,386.74,26.11,386.74Z"/><path class="cls-1" d="M262.27,344.35c-17.33,0-26.1,12-26.1,26.29s8.77,26.3,26.1,26.3,26.11-12.05,26.11-26.3S279.61,344.35,262.27,344.35Zm0,42.39c-10,0-15-7.9-15-16.1s5.05-16.09,15-16.09,15,7.9,15,16.09S272.25,386.74,262.27,386.74Z"/><path class="cls-1" d="M90.84,386.74a16.37,16.37,0,0,1-16.7-16.1c0-8.19,5-16.09,15-16.09a16.22,16.22,0,0,1,14,7.3l1.06-.8V348.46a33.39,33.39,0,0,0-15-4.11c-17.33,0-26.1,12-26.1,26.29s10.44,26.3,27.78,26.3a32.48,32.48,0,0,0,15.23-4V380l-1-.77A17.69,17.69,0,0,1,90.84,386.74Z"/><path class="cls-1" d="M203.67,344.35c-8,0-14,.5-19.79.5H182.2s.17,6.36.17,25.79-.17,25.8-.17,25.8h11.09s-.08-3.07-.13-11.43a69.56,69.56,0,0,0,8,.42c15,0,24.24-7,24.24-20.84C225.44,353.28,217.81,344.35,203.67,344.35Zm-2.09,31.21a81.7,81.7,0,0,1-8.45-.48c0-1.4,0-2.87,0-4.44,0-6.75,0-11.91,0-15.79a30.93,30.93,0,0,1,7.18-.79c11.32,0,14.34,4.1,14.34,10.75C214.69,370.37,211.11,375.56,201.58,375.56Z"/><path class="cls-1" d="M322.14,344.35c-8,0-14,.5-19.79.5h-1.68s.17,6.36.17,25.79-.17,25.8-.17,25.8h11.09s-.08-3.07-.13-11.43a69.56,69.56,0,0,0,8,.42c15,0,24.24-7,24.24-20.84C343.91,353.28,336.28,344.35,322.14,344.35Zm-2.09,31.21a81.7,81.7,0,0,1-8.45-.48c0-1.4,0-2.87,0-4.44,0-6.75,0-11.91.05-15.79a30.93,30.93,0,0,1,7.18-.79c11.32,0,14.34,4.1,14.34,10.75C333.16,370.37,329.58,375.56,320.05,375.56Z"/><path class="cls-1" d="M166.53,344.85H155.44s.16,6.36.16,25.79c0,10.36-3.84,16.1-12.42,16.1s-12.42-5.74-12.42-16.1c0-19.43.16-25.79.16-25.79H119.84s.08,6.36.08,25.79h0c0,14.25,5.92,26.3,23.26,26.3s23.26-12.05,23.26-26.3h0C166.44,351.21,166.53,344.85,166.53,344.85Z"/></g></g></svg>